<?xml version="1.0" encoding="UTF-8" standalone="no"?>
<!-- Created with Inkscape (http://www.inkscape.org/) -->

<svg
   xmlns:dc="http://purl.org/dc/elements/1.1/"
   xmlns:cc="http://creativecommons.org/ns#"
   xmlns:rdf="http://www.w3.org/1999/02/22-rdf-syntax-ns#"
   xmlns:svg="http://www.w3.org/2000/svg"
   xmlns="http://www.w3.org/2000/svg"
   xmlns:sodipodi="http://sodipodi.sourceforge.net/DTD/sodipodi-0.dtd"
   xmlns:inkscape="http://www.inkscape.org/namespaces/inkscape"
   width="1948.8188"
   height="708.66138"
   id="svg7649"
   version="1.1"
   inkscape:version="0.48.3.1 r9886"
   sodipodi:docname="nerve_subtle.svg"
   inkscape:export-filename="/home/muxa/Desktop/nerve_subtle.png"
   inkscape:export-xdpi="50.799999"
   inkscape:export-ydpi="50.799999">
  <defs
     id="defs7651" />
  <sodipodi:namedview
     id="base"
     pagecolor="#ffffff"
     bordercolor="#666666"
     borderopacity="1.0"
     inkscape:pageopacity="0.0"
     inkscape:pageshadow="2"
     inkscape:zoom="0.35355339"
     inkscape:cx="1910.8881"
     inkscape:cy="463.64111"
     inkscape:document-units="cm"
     inkscape:current-layer="layer1"
     showgrid="false"
     units="cm"
     inkscape:window-width="1920"
     inkscape:window-height="1056"
     inkscape:window-x="0"
     inkscape:window-y="24"
     inkscape:window-maximized="1" />
  <metadata
     id="metadata7654">
    <rdf:RDF>
      <cc:Work
         rdf:about="">
        <dc:format>image/svg+xml</dc:format>
        <dc:type
           rdf:resource="http://purl.org/dc/dcmitype/StillImage" />
        <dc:title></dc:title>
      </cc:Work>
    </rdf:RDF>
  </metadata>
  <g
     inkscape:label="Layer 1"
     inkscape:groupmode="layer"
     id="layer1"
     transform="translate(0,-343.62234)">
    <rect
       style="fill:#000000;fill-opacity:1;fill-rule:nonzero;stroke:none"
       id="rect8315"
       width="1948.8188"
       height="708.66144"
       x="0"
       y="343.62231" />
    <path
       inkscape:connector-curvature="0"
       id="path7635"
       style="fill:#ffffff;stroke:#000000;stroke-width:5.34921455000000012;stroke-linecap:butt;stroke-linejoin:miter;stroke-miterlimit:10;stroke-opacity:1;stroke-dasharray:none;fill-opacity:1"
       d="m 1149.3675,626.06489 129.3226,0 0.3851,184.93307 253.2265,0 0,-92.45851 38.6374,0 0,-41.22904 -262.4619,0 0,-144.36198 242.9935,0 0,96.18963 9.3611,0 0,-106.12843 -252.3546,0 0,-147.02316 242.4773,0 0,97.53755 9.8773,0 0,-97.46535 216.9106,0 0,166.31243 -132.9253,0 0,-118.52254 -9.3611,0 0,216.19385 9.3611,0 0,-87.73247 242.8089,0 0,136.68579 -252.17,0 0,10.8188 252.3545,0 0,155.78518 -242.9934,0 0,-106.64995 -9.3611,0 0,221.21676 9.3611,0 0,-103.55009 242.9934,0 0,153.30317 -355.5088,0 0,-113.33652 -253.2265,0 0,111.81192 -188.7256,0 0,-103.78008 140.5373,0 0,-8.03184 -345.10729,0 -253.60623,0 -53.1204,0 -253.60357,0 -58.01492,0 0,-118.78199 -206.426153,0 0,-233.73928 154.421113,0 0,147.3682 42.97288,0 0,35.68193 9.03216,0 0,-35.68193 59.02593,0 0,-9.2595 -100.31651,0 0,-138.55001 150.115,0.44131 0,256.93615 435.00618,0 0,-183.61715 84.8091,0 0,175.58529 -42.25076,0 0,8.03186 42.25076,0 253.29331,0 81.5194,0 0,-8.03186 -81.5221,0 0,-176.90121 z" />
  </g>
</svg>
